<svg width="131" height="131" viewBox="0 0 131 131" fill="none" xmlns="http://www.w3.org/2000/svg">
<path d="M97.5745 57.3125L49.8209 9.53844C47.6259 7.48509 44.7187 6.36522 41.7134 6.41532C38.7081 6.46543 35.8399 7.68159 33.7145 9.80697C31.5891 11.9324 30.3729 14.8006 30.3228 17.8059C30.2727 20.8112 31.3926 23.7184 33.4459 25.9134L72.9711 65.5L33.4255 105.066C32.2907 106.128 31.381 107.407 30.7507 108.827C30.1203 110.247 29.7821 111.78 29.7562 113.334C29.7303 114.887 30.0172 116.43 30.5999 117.871C31.1825 119.311 32.0491 120.62 33.1478 121.719C34.2466 122.818 35.5552 123.684 36.9958 124.267C38.4363 124.849 39.9793 125.136 41.533 125.11C43.0867 125.084 44.6193 124.746 46.0396 124.116C47.46 123.486 48.7389 122.576 49.8005 121.441L97.5745 73.6875C99.7345 71.5099 100.946 68.5671 100.946 65.5C100.946 62.4329 99.7345 59.4901 97.5745 57.3125Z" fill="black"/>
</svg>
