<svg width="91" height="91" viewBox="0 0 91 91" fill="none" xmlns="http://www.w3.org/2000/svg">
<g clip-path="url(#clip0_305_2)">
<path d="M49.2917 75.8333C54.3179 75.8273 59.1365 73.828 62.6906 70.2739C66.2447 66.7198 68.244 61.9012 68.25 56.875V23.6714C68.2559 21.6783 67.8662 19.7039 67.1033 17.8626C66.3405 16.0213 65.2198 14.3497 63.8062 12.9447L55.3053 4.44383C53.9003 3.0302 52.2287 1.90949 50.3874 1.14667C48.5461 0.383856 46.5717 -0.00590006 44.5786 -2.72902e-06H26.5417C21.5155 0.0060179 16.6968 2.00534 13.1428 5.55941C9.58869 9.11349 7.58936 13.9321 7.58334 18.9583V56.875C7.58936 61.9012 9.58869 66.7198 13.1428 70.2739C16.6968 73.828 21.5155 75.8273 26.5417 75.8333H49.2917ZM15.1667 56.875V18.9583C15.1667 15.9415 16.3651 13.0482 18.4983 10.915C20.6316 8.78176 23.5248 7.58333 26.5417 7.58333C26.5417 7.58333 45.1929 7.63641 45.5 7.67433V15.1667C45.5 17.1779 46.299 19.1067 47.7211 20.5289C49.1433 21.951 51.0721 22.75 53.0833 22.75H60.5757C60.6136 23.0571 60.6667 56.875 60.6667 56.875C60.6667 59.8918 59.4682 62.7851 57.335 64.9183C55.2018 67.0516 52.3085 68.25 49.2917 68.25H26.5417C23.5248 68.25 20.6316 67.0516 18.4983 64.9183C16.3651 62.7851 15.1667 59.8918 15.1667 56.875ZM83.4167 30.3333V72.0417C83.4107 77.0679 81.4113 81.8865 77.8573 85.4406C74.3032 88.9947 69.4846 90.994 64.4583 91H30.3333C29.3277 91 28.3633 90.6005 27.6522 89.8895C26.9412 89.1784 26.5417 88.2139 26.5417 87.2083C26.5417 86.2027 26.9412 85.2383 27.6522 84.5272C28.3633 83.8161 29.3277 83.4167 30.3333 83.4167H64.4583C67.4752 83.4167 70.3685 82.2182 72.5017 80.085C74.6349 77.9518 75.8333 75.0585 75.8333 72.0417V30.3333C75.8333 29.3277 76.2328 28.3633 76.9439 27.6522C77.655 26.9411 78.6194 26.5417 79.625 26.5417C80.6306 26.5417 81.5951 26.9411 82.3061 27.6522C83.0172 28.3633 83.4167 29.3277 83.4167 30.3333Z" fill="black"/>
</g>
<defs>
<clipPath id="clip0_305_2">
<rect width="91" height="91" fill="white"/>
</clipPath>
</defs>
</svg>
