<svg width="64" height="64" viewBox="0 0 64 64" fill="none" xmlns="http://www.w3.org/2000/svg">
<path d="M63.5931 30.7551C63.0214 29.973 49.3985 11.6044 31.9996 11.6044C14.6007 11.6044 0.977237 29.973 0.406112 30.7544C0.142211 31.1159 0 31.552 0 31.9996C0 32.4472 0.142211 32.8832 0.406112 33.2448C0.977237 34.0269 14.6007 52.3955 31.9996 52.3955C49.3985 52.3955 63.0214 34.0268 63.5931 33.2454C63.8574 32.884 63.9998 32.4479 63.9998 32.0003C63.9998 31.5526 63.8574 31.1165 63.5931 30.7551ZM31.9996 48.1758C19.1835 48.1758 8.08336 35.9841 4.79749 31.9985C8.07911 28.0094 19.156 15.8241 31.9996 15.8241C44.8151 15.8241 55.9145 28.0136 59.2017 32.0014C55.9201 35.9904 44.8432 48.1758 31.9996 48.1758Z" fill="black"/>
<path d="M31.9996 19.3407C25.0194 19.3407 19.3403 25.0198 19.3403 32C19.3403 38.9803 25.0194 44.6594 31.9996 44.6594C38.9799 44.6594 44.659 38.9803 44.659 32C44.659 25.0198 38.9799 19.3407 31.9996 19.3407ZM31.9996 40.4395C27.3459 40.4395 23.5601 36.6537 23.5601 32C23.5601 27.3464 27.346 23.5605 31.9996 23.5605C36.6533 23.5605 40.4391 27.3464 40.4391 32C40.4391 36.6537 36.6534 40.4395 31.9996 40.4395Z" fill="black"/>
</svg>
