<svg width="40" height="40" viewBox="0 0 40 40" fill="none" xmlns="http://www.w3.org/2000/svg">
<path d="M35.5556 40H4.44444C3.26607 39.9988 2.13629 39.5302 1.30305 38.697C0.469807 37.8637 0.00117661 36.7339 0 35.5556V26.6667C0.00117661 25.4883 0.469807 24.3585 1.30305 23.5253C2.13629 22.692 3.26607 22.2234 4.44444 22.2222H35.5556C36.7339 22.2234 37.8637 22.692 38.697 23.5253C39.5302 24.3585 39.9988 25.4883 40 26.6667V35.5556C39.9988 36.7339 39.5302 37.8637 38.697 38.697C37.8637 39.5302 36.7339 39.9988 35.5556 40ZM4.44444 26.6667V35.5556H35.5589L35.5556 26.6667H4.44444ZM35.5556 17.7778H4.44444C3.26607 17.7766 2.13629 17.308 1.30305 16.4747C0.469807 15.6415 0.00117661 14.5117 0 13.3333V4.44444C0.00117661 3.26607 0.469807 2.13629 1.30305 1.30305C2.13629 0.469807 3.26607 0.00117661 4.44444 0H35.5556C36.7339 0.00117661 37.8637 0.469807 38.697 1.30305C39.5302 2.13629 39.9988 3.26607 40 4.44444V13.3333C39.9988 14.5117 39.5302 15.6415 38.697 16.4747C37.8637 17.308 36.7339 17.7766 35.5556 17.7778ZM4.44444 4.44444V13.3333H35.5589L35.5556 4.44444H4.44444Z" fill="black"/>
</svg>
