<svg width="40" height="40" viewBox="0 0 40 40" fill="none" xmlns="http://www.w3.org/2000/svg">
<path d="M16.6665 0H1.6665C1.22488 0.00118768 0.801691 0.177146 0.489419 0.489419C0.177146 0.801691 0.00118768 1.22488 0 1.6665V16.6665C0.00171186 17.108 0.177839 17.5308 0.489998 17.843C0.802157 18.1552 1.22504 18.3313 1.6665 18.333H16.6665C17.108 18.3314 17.5311 18.1554 17.8433 17.8432C18.1556 17.531 18.3318 17.108 18.3335 16.6665V1.6665C18.3322 1.22484 18.1561 0.801646 17.8438 0.489388C17.5314 0.177129 17.1082 0.00118708 16.6665 0ZM15 15H3.3335V3.3335H15V15ZM38.3335 0H23.3335C22.8918 0.00118708 22.4686 0.177129 22.1562 0.489388C21.8439 0.801646 21.6678 1.22484 21.6665 1.6665V16.6665C21.6682 17.108 21.8444 17.531 22.1567 17.8432C22.4689 18.1554 22.892 18.3314 23.3335 18.333H38.3335C38.775 18.3313 39.1978 18.1552 39.51 17.843C39.8222 17.5308 39.9983 17.108 40 16.6665V1.6665C39.9988 1.22488 39.8229 0.801691 39.5106 0.489419C39.1983 0.177146 38.7751 0.00118768 38.3335 0ZM36.6665 15H25V3.3335H36.6665V15ZM16.6665 21.667H1.6665C1.22488 21.6682 0.801691 21.8441 0.489419 22.1564C0.177146 22.4687 0.00118768 22.8919 0 23.3335V38.3335C0.00171186 38.775 0.177839 39.1978 0.489998 39.51C0.802157 39.8222 1.22504 39.9983 1.6665 40H16.6665C17.108 39.9984 17.5311 39.8224 17.8433 39.5102C18.1556 39.198 18.3318 38.775 18.3335 38.3335V23.3335C18.3323 22.8918 18.1563 22.4685 17.8439 22.1562C17.5315 21.844 17.1082 21.6681 16.6665 21.667ZM15 36.667H3.3335V25H15V36.667ZM38.3335 21.667H23.3335C22.8918 21.6681 22.4685 21.844 22.1561 22.1562C21.8437 22.4685 21.6677 22.8918 21.6665 23.3335V38.3335C21.6682 38.775 21.8444 39.198 22.1567 39.5102C22.4689 39.8224 22.892 39.9984 23.3335 40H38.3335C38.775 39.9983 39.1978 39.8222 39.51 39.51C39.8222 39.1978 39.9983 38.775 40 38.3335V23.3335C39.9988 22.8919 39.8229 22.4687 39.5106 22.1564C39.1983 21.8441 38.7751 21.6682 38.3335 21.667ZM36.6665 36.667H25V25H36.6665V36.667Z" fill="black"/>
</svg>
