<svg width="43" height="38" viewBox="0 0 43 38" fill="none" xmlns="http://www.w3.org/2000/svg">
<path fill-rule="evenodd" clip-rule="evenodd" d="M13.1252 3.43828H0.165215V6.31828H22.2906C22.1521 6.76175 21.98 7.26815 21.7712 7.81134C21.0529 9.67902 19.9417 11.8653 18.3469 13.4601L14.5652 17.2419L13.1834 15.86C11.4957 14.1723 10.3723 12.486 9.67399 11.2289C9.32525 10.6012 9.08402 10.0833 8.93253 9.72978C8.85684 9.55316 8.8037 9.41797 8.77089 9.33109C8.75448 9.28768 8.74318 9.25636 8.73667 9.23805L8.73048 9.22041C8.73048 9.22041 8.73132 9.2229 7.36521 9.67828C5.99911 10.1337 5.9994 10.1345 5.9994 10.1345L6.00041 10.1375L6.00216 10.1427L6.00706 10.157L6.02246 10.2011C6.0353 10.2373 6.05328 10.2868 6.07673 10.3489C6.1236 10.473 6.19233 10.6471 6.28541 10.8643C6.47141 11.2983 6.75518 11.9054 7.15644 12.6276C7.95809 14.0706 9.23477 15.9843 11.147 17.8966L12.5287 19.2783L1.55635 30.2506L1.54893 30.258L1.54706 30.26L3.58354 32.2964L3.58973 32.2901L14.6535 21.2264L20.8434 26.3844L22.6871 24.1721L16.6983 19.1816L20.3835 15.4966C22.3887 13.4913 23.6775 10.8775 24.4592 8.84521C24.8415 7.85099 25.1132 6.96801 25.2923 6.31828H28.9652V3.43828H16.0052V0.0782776H13.1252V3.43828ZM32.4224 14.4783L42.2924 37.9196H39.1674L36.4722 31.5183H26.2583L23.5631 37.9196H20.438L30.308 14.4783H32.4224ZM27.4707 28.6383H35.2597L31.3652 19.3892L27.4707 28.6383Z" fill="#121923"/>
</svg>
