<svg width="24" height="24" viewBox="0 0 24 24" fill="none" xmlns="http://www.w3.org/2000/svg">
<g clip-path="url(#clip0_305_8)">
<path d="M1.28437 3.07031H22.7156C23.3719 3.07031 23.9063 2.53594 23.9063 1.87969C23.9063 1.22344 23.3719 0.689063 22.7156 0.689063H1.28437C0.628125 0.689063 0.09375 1.22344 0.09375 1.87969C0.09375 2.53594 0.628125 3.07031 1.28437 3.07031ZM22.7156 6.64219H1.28437C0.628125 6.64219 0.09375 7.17656 0.09375 7.83281C0.09375 8.48906 0.628125 9.02344 1.28437 9.02344H22.7156C23.3719 9.02344 23.9063 8.48906 23.9063 7.83281C23.9063 7.17656 23.3719 6.64219 22.7156 6.64219ZM8.42813 18.5484H1.28437C0.628125 18.5484 0.09375 19.0828 0.09375 19.7391C0.09375 20.3953 0.628125 20.9297 1.28437 20.9297H8.42813C9.08438 20.9297 9.61875 20.3953 9.61875 19.7391C9.61875 19.0828 9.08438 18.5484 8.42813 18.5484Z" fill="black"/>
<path d="M19.7391 12.5953H1.28437C0.628125 12.5953 0.09375 13.1297 0.09375 13.7859C0.09375 14.4422 0.628125 14.9766 1.28437 14.9766H19.7391C20.7234 14.9766 21.525 15.7781 21.525 16.7625C21.525 17.7469 20.7234 18.5484 19.7391 18.5484H17.9531V16.5375C17.9531 16.2047 17.55 16.0406 17.3156 16.275L14.4891 19.4766C14.3438 19.6219 14.3438 19.8563 14.4891 20.0016L17.3156 23.2031C17.55 23.4375 17.9531 23.2734 17.9531 22.9406V20.9297H19.7391C22.0359 20.9297 23.9062 19.0594 23.9062 16.7625C23.9062 14.4656 22.0359 12.5953 19.7391 12.5953Z" fill="black"/>
</g>
<defs>
<clipPath id="clip0_305_8">
<rect width="24" height="24" fill="white"/>
</clipPath>
</defs>
</svg>
