<svg width="0" height="0"><symbol xmlns="http://www.w3.org/2000/svg" id="about" fill="none" viewBox="0 0 24 24"><g id="notifications / info"><path id="icon" fill="currentColor" fill-rule="evenodd" d="M1 12c0 6.075 4.925 11 11 11s11-4.925 11-11S18.075 1 12 1 1 5.925 1 12Zm20 0a9 9 0 1 1-18 0 9 9 0 0 1 18 0Zm-7.996 1.998h.999v2h-4v-2h1v-2h-1v-2h3v4Zm-.003-6a1 1 0 1 1-2 0 1 1 0 0 1 2 0Z" clip-rule="evenodd"/></g></symbol><symbol xmlns="http://www.w3.org/2000/svg" id="home" fill="none" viewBox="0 0 24 24"><g id="basic / home"><path fill="currentColor" fill-rule="evenodd" d="m5.889 10 6.001-6.001L17.891 10h-.001v10h-12V10h-.001ZM3.89 11.999l-1.477 1.476L1 12.063l9.477-9.477c.78-.78 2.046-.78 2.826 0l9.477 9.477-1.413 1.414L19.89 12v8a2 2 0 0 1-2 2h-12a2 2 0 0 1-2-2v-8.001Z" clip-rule="evenodd"/></g></symbol><symbol xmlns="http://www.w3.org/2000/svg" id="profile" fill="none" viewBox="0 0 24 24"><path fill="currentColor" fill-rule="evenodd" d="M12 23C5.925 23 1 18.075 1 12S5.925 1 12 1s11 4.925 11 11-4.925 11-11 11Zm7.4-5.875a9 9 0 1 0-14.799 0C5.726 15.638 8.37 15 12 15s6.274.638 7.4 2.125Zm-1.435 1.615C17.672 17.687 15.569 17 12 17c-3.57 0-5.672.687-5.965 1.74A8.966 8.966 0 0 0 12 21a8.966 8.966 0 0 0 5.965-2.26ZM12 15c-2.24 0-4-1.573-4-5 0-2.244 1.58-4 4-4 2.414 0 4 1.922 4 4.2 0 3.28-1.782 4.8-4 4.8Zm-2-5c0 2.27.818 3 2 3 1.178 0 2-.702 2-2.8 0-1.25-.784-2.2-2-2.2-1.266 0-2 .816-2 2Z" clip-rule="evenodd"/></symbol></svg>