<svg width="0" height="0"><symbol xmlns="http://www.w3.org/2000/svg" id="arrow" fill="none" viewBox="0 0 131 131"><path fill="currentColor" d="M97.575 57.313 49.82 9.538a11.585 11.585 0 0 0-16.375 16.375L72.97 65.5l-39.546 39.566a11.593 11.593 0 0 0-3.669 8.268 11.587 11.587 0 0 0 11.777 11.776 11.593 11.593 0 0 0 8.267-3.669l47.775-47.754a11.626 11.626 0 0 0 0-16.374Z"/></symbol><symbol xmlns="http://www.w3.org/2000/svg" id="eye" fill="none" viewBox="0 0 64 64"><path fill="currentColor" d="M63.593 30.755c-.572-.782-14.195-19.15-31.593-19.15-17.4 0-31.023 18.368-31.594 19.15a2.112 2.112 0 0 0 0 2.49c.571.782 14.195 19.15 31.594 19.15 17.398 0 31.021-18.368 31.593-19.15a2.11 2.11 0 0 0 0-2.49ZM32 48.175C19.183 48.176 8.083 35.986 4.797 32 8.08 28.008 19.156 15.823 32 15.823c12.815 0 23.914 12.19 27.202 16.177C55.92 35.991 44.843 48.176 32 48.176Z"/><path fill="currentColor" d="M32 19.34c-6.98 0-12.66 5.68-12.66 12.66S25.02 44.66 32 44.66 44.659 38.98 44.659 32s-5.68-12.66-12.66-12.66Zm0 21.1c-4.654 0-8.44-3.786-8.44-8.44s3.786-8.44 8.44-8.44c4.653 0 8.44 3.786 8.44 8.44s-3.787 8.44-8.44 8.44Z"/></symbol><symbol xmlns="http://www.w3.org/2000/svg" id="image" fill="currentColor" aria-hidden="true" viewBox="0 0 20 18"><path d="M18 0H2a2 2 0 0 0-2 2v14a2 2 0 0 0 2 2h16a2 2 0 0 0 2-2V2a2 2 0 0 0-2-2Zm-5.5 4a1.5 1.5 0 1 1 0 3 1.5 1.5 0 0 1 0-3Zm4.376 10.481A1 1 0 0 1 16 15H4a1 1 0 0 1-.895-1.447l3.5-7A1 1 0 0 1 7.468 6a.965.965 0 0 1 .9.5l2.775 4.757 1.546-1.887a1 1 0 0 1 1.618.1l2.541 4a1 1 0 0 1 .028 1.011Z"/></symbol><symbol xmlns="http://www.w3.org/2000/svg" id="translate" fill="none" viewBox="0 0 43 38"><path fill="currentColor" fill-rule="evenodd" d="M13.125 3.438H.165v2.88h22.126c-.139.444-.311.95-.52 1.493-.718 1.868-1.83 4.054-3.424 5.65l-3.782 3.78-1.382-1.381a21.084 21.084 0 0 1-3.509-4.631 16.509 16.509 0 0 1-.741-1.5 9.94 9.94 0 0 1-.196-.49L8.73 9.22s.001.003-1.365.458L6 10.134l.001.003.002.006.005.014.015.044.055.148c.047.124.115.298.208.515.186.434.47 1.041.871 1.764a23.967 23.967 0 0 0 3.991 5.269l1.382 1.381L1.556 30.251l-.007.007-.002.002 2.037 2.036.006-.006 11.063-11.064 6.19 5.158 1.844-2.212-5.989-4.99 3.686-3.685c2.005-2.006 3.293-4.62 4.075-6.652.383-.994.654-1.877.833-2.527h3.673v-2.88h-12.96V.078h-2.88v3.36Zm19.297 11.04 9.87 23.442h-3.125l-2.695-6.402H26.258l-2.695 6.402h-3.125l9.87-23.442h2.114Zm-4.951 14.16h7.789l-3.895-9.249-3.894 9.25Z" clip-rule="evenodd"/></symbol></svg>