<svg width="0" height="0"><symbol xmlns="http://www.w3.org/2000/svg" id="moon" fill="none" viewBox="0 0 24 24"><g id="various / moon"><path id="icon" fill="currentColor" fill-rule="evenodd" d="M13 9c0-1.975.82-3.815 2.24-5.132l1.477-1.372-1.985-.346A9.993 9.993 0 0 0 13 2C7.477 2 3 6.477 3 12s4.477 10 10 10a9.99 9.99 0 0 0 8.327-4.46l1.116-1.676-2.01.123A7 7 0 0 1 13 9Zm0 11a8 8 0 0 1-.495-15.985A8.97 8.97 0 0 0 11 9c0 4.439 3.214 8.127 7.441 8.866A7.98 7.98 0 0 1 13 20Z" clip-rule="evenodd"/></g></symbol><symbol xmlns="http://www.w3.org/2000/svg" id="sun" fill="none" viewBox="0 0 24 24"><g id="various / brightness-high"><path fill="currentColor" fill-rule="evenodd" d="M13 5.07a7.06 7.06 0 0 0-2 0V1.046a11.14 11.14 0 0 1 2 0V5.07ZM7 12a5 5 0 1 0 10 0 5 5 0 0 0-10 0Zm8 0a3 3 0 1 1-6 0 3 3 0 0 1 6 0Zm-2 10.955V18.93a7.062 7.062 0 0 1-2 0v4.026a11.17 11.17 0 0 0 2 0ZM18.93 11h4.025a11.17 11.17 0 0 1 0 2H18.93a7.062 7.062 0 0 0 0-2ZM5 12c0-.34.024-.673.07-1H1.046a11.14 11.14 0 0 0 0 2H5.07A7.06 7.06 0 0 1 5 12Zm11.192-5.606 2.847-2.847c.513.427.987.9 1.414 1.414l-2.847 2.847a7.04 7.04 0 0 0-1.414-1.414ZM3.547 4.96l2.847 2.847a7.04 7.04 0 0 1 1.414-1.414L4.96 3.547c-.513.427-.987.9-1.414 1.414Zm14.06 11.231 2.846 2.847c-.427.513-.9.987-1.414 1.414l-2.847-2.847a7.04 7.04 0 0 0 1.414-1.414ZM4.96 20.453l2.847-2.847a7.04 7.04 0 0 1-1.414-1.414L3.547 19.04c.427.513.9.987 1.414 1.414Z" clip-rule="evenodd"/></g></symbol></svg>