<svg width="0" height="0" class="hidden"><symbol viewBox="0 0 24 24" fill="none" xmlns="http://www.w3.org/2000/svg" id="about"><g id=" notifications / info"><path id="icon" fill-rule="evenodd" clip-rule="evenodd" d="M1 12C1 18.0751 5.92487 23 12 23C18.0751 23 23 18.0751 23 12C23 5.92487 18.0751 1 12 1C5.92487 1 1 5.92487 1 12ZM21 12C21 16.9706 16.9706 21 12 21C7.02944 21 3 16.9706 3 12C3 7.02944 7.02944 3 12 3C16.9706 3 21 7.02944 21 12ZM13.0036 13.9983H14.003V15.9983H10.003V13.9983H11.003V11.9983H10.003V9.99835H13.0036V13.9983ZM13.0007 7.99835C13.0007 8.55063 12.5528 8.99835 12.0003 8.99835C11.4479 8.99835 11 8.55063 11 7.99835C11 7.44606 11.4479 6.99835 12.0003 6.99835C12.5528 6.99835 13.0007 7.44606 13.0007 7.99835Z" fill="currentColor"></path></g></symbol><symbol viewBox="0 0 24 24" fill="none" xmlns="http://www.w3.org/2000/svg" id="home"><g id=" basic / home"><path id="icon" fill-rule="evenodd" clip-rule="evenodd" d="M5.88867 10L11.89 3.99867L17.8913 10H17.89V20H5.89001V10H5.88867ZM3.89001 11.9987L2.4132 13.4755L1 12.0623L10.477 2.58529C11.2574 1.8049 12.5226 1.8049 13.303 2.58529L22.78 12.0623L21.3668 13.4755L19.89 11.9987V20C19.89 21.1046 18.9946 22 17.89 22H5.89001C4.78545 22 3.89001 21.1046 3.89001 20V11.9987Z" fill="currentColor"></path></g></symbol><symbol viewBox="0 0 24 24" fill="none" xmlns="http://www.w3.org/2000/svg" id="profile"><path fill-rule="evenodd" clip-rule="evenodd" d="M12 23C5.92487 23 1 18.0751 1 12C1 5.92487 5.92487 1 12 1C18.0751 1 23 5.92487 23 12C23 18.0751 18.0751 23 12 23ZM19.3995 17.1246C20.4086 15.6703 21 13.9042 21 12C21 7.02944 16.9706 3 12 3C7.02944 3 3 7.02944 3 12C3 13.9042 3.59138 15.6703 4.6005 17.1246C5.72595 15.6381 8.3706 15 12 15C15.6294 15 18.274 15.6381 19.3995 17.1246ZM17.9647 18.7398C17.672 17.6874 15.5694 17 12 17C8.43062 17 6.328 17.6874 6.03532 18.7398C7.6233 20.1462 9.71194 21 12 21C14.2881 21 16.3767 20.1462 17.9647 18.7398ZM12 15C9.76086 15 8 13.4274 8 10C8 7.75576 9.5791 6 12 6C14.4142 6 16 7.92158 16 10.2C16 13.4796 14.2181 15 12 15ZM10 10C10 12.2693 10.8182 13 12 13C13.1777 13 14 12.2984 14 10.2C14 8.95042 13.2157 8 12 8C10.7337 8 10 8.81582 10 10Z" fill="currentColor"></path></symbol></svg>