<svg width="24" height="24" viewBox="0 0 24 24" fill="none" xmlns="http://www.w3.org/2000/svg">
<path fill-rule="evenodd" clip-rule="evenodd" d="M20.9872 3.8385C20.9872 3.24189 20.7503 2.66971 20.3285 2.24778C19.9067 1.82584 19.3346 1.5887 18.738 1.5885H5.24174C4.9463 1.5885 4.65376 1.6467 4.38082 1.75979C4.10788 1.87287 3.85989 2.03861 3.65102 2.24756C3.44215 2.4565 3.27648 2.70454 3.16349 2.97752C3.0505 3.2505 2.99239 3.54306 2.99249 3.8385V20.3445C2.99249 20.9412 3.22955 21.5135 3.6515 21.9355C4.07346 22.3574 4.64576 22.5945 5.24249 22.5945H18.738C19.3347 22.5945 19.907 22.3574 20.329 21.9355C20.7509 21.5135 20.988 20.9412 20.988 20.3445L20.9872 3.8385ZM19.4887 3.8385V20.3445C19.4887 20.7593 19.152 21.0953 18.738 21.0953H5.24174C4.82774 21.0953 4.49174 20.7593 4.49174 20.3445V3.8385C4.49164 3.73995 4.51097 3.64234 4.54862 3.55126C4.58626 3.46018 4.64149 3.37741 4.71115 3.30769C4.7808 3.23796 4.86351 3.18265 4.95456 3.14491C5.0456 3.10718 5.14319 3.08775 5.24174 3.08775H18.738C19.152 3.08775 19.488 3.42375 19.488 3.8385H19.4887Z" fill="black"/>
<path fill-rule="evenodd" clip-rule="evenodd" d="M6.75 8.25H17.25C17.4489 8.25 17.6397 8.17098 17.7803 8.03033C17.921 7.88968 18 7.69891 18 7.5C18 7.30109 17.921 7.11032 17.7803 6.96967C17.6397 6.82902 17.4489 6.75 17.25 6.75H6.75C6.55109 6.75 6.36032 6.82902 6.21967 6.96967C6.07902 7.11032 6 7.30109 6 7.5C6 7.69891 6.07902 7.88968 6.21967 8.03033C6.36032 8.17098 6.55109 8.25 6.75 8.25ZM6.75 12.75H17.25C17.4489 12.75 17.6397 12.671 17.7803 12.5303C17.921 12.3897 18 12.1989 18 12C18 11.8011 17.921 11.6103 17.7803 11.4697C17.6397 11.329 17.4489 11.25 17.25 11.25H6.75C6.55109 11.25 6.36032 11.329 6.21967 11.4697C6.07902 11.6103 6 11.8011 6 12C6 12.1989 6.07902 12.3897 6.21967 12.5303C6.36032 12.671 6.55109 12.75 6.75 12.75ZM6.75 17.25H17.25C17.4489 17.25 17.6397 17.171 17.7803 17.0303C17.921 16.8897 18 16.6989 18 16.5C18 16.3011 17.921 16.1103 17.7803 15.9697C17.6397 15.829 17.4489 15.75 17.25 15.75H6.75C6.55109 15.75 6.36032 15.829 6.21967 15.9697C6.07902 16.1103 6 16.3011 6 16.5C6 16.6989 6.07902 16.8897 6.21967 17.0303C6.36032 17.171 6.55109 17.25 6.75 17.25Z" fill="black"/>
</svg>
